<?xml version="1.0" encoding="UTF-8"?><svg id="Layer_2" xmlns="http://www.w3.org/2000/svg" viewBox="0 0 75.75 14.26"><defs><style>.cls-1{fill:#101753;stroke-width:0px;}</style></defs><g id="Layer_1-2"><polygon class="cls-1" points="39.99 10.93 39.99 5.44 30.84 10.4 30.2 9.21 41.33 3.19 41.33 8.67 51.47 3.19 51.47 8.67 60.62 3.72 61.26 4.91 50.13 10.93 50.13 5.44 39.99 10.93"/><path class="cls-1" d="m0,13.92V.34h3.04v11.05h8.29l-.38,2.53H0Z"/><path class="cls-1" d="m22.44,4.16c-.27-.65-.67-1.11-1.2-1.4-.53-.29-1.27-.43-2.23-.43-1.08,0-1.9.13-2.47.4s-.86.65-.86,1.16.17.84.52,1.07.99.41,1.91.55l2.8.44c1.66.27,2.88.73,3.65,1.4s1.16,1.58,1.16,2.75c0,1.32-.56,2.34-1.68,3.07-1.12.73-2.72,1.09-4.8,1.09-1.51,0-2.76-.18-3.76-.53-1-.35-1.76-.89-2.28-1.62-.53-.72-.84-1.64-.94-2.76h3.06c.13.89.5,1.54,1.12,1.95.62.41,1.55.62,2.8.62,1.12,0,1.96-.15,2.52-.45s.85-.74.85-1.32c0-.47-.19-.84-.56-1.1-.37-.27-.97-.46-1.78-.57l-2.28-.32c-1.85-.25-3.2-.71-4.06-1.38-.86-.67-1.28-1.6-1.28-2.81,0-.81.25-1.51.76-2.11.51-.6,1.25-1.06,2.22-1.38.97-.32,2.13-.49,3.47-.49,1.85,0,3.28.31,4.3.92,1.01.62,1.68,1.58,2,2.9l-2.95.34Z"/><path class="cls-1" d="m67.95,8.46v5.46h-3.04V.34h10.84v2.49h-7.8v3.14h7.4v2.49h-7.4Z"/></g></svg>