<?xml version="1.0" encoding="UTF-8"?><svg id="Layer_2" xmlns="http://www.w3.org/2000/svg" viewBox="0 0 516.51 102.27"><defs><style>.cls-1{stroke-width:0px;}</style></defs><g id="Layer_1-2"><path class="cls-1" d="m320.88,78.67c-9.37,0-19.08-3.32-25.49-9.16-3.81-3.48-6.07-7.21-8.06-10.51-.78-1.29-1.52-2.51-2.27-3.58-2.1-2.97-4.66-4.68-7.59-5.1-3.59-.52-8.18.82-13.28,3.85-1.08.64-2.14,1.31-3.21,1.98-4.7,2.95-10.02,6.29-17.07,8-6.78,1.64-14.62,1.61-23.98-.09-5.43-.99-9.03-6.2-8.04-11.63.99-5.43,6.19-9.03,11.63-8.04,6.55,1.19,11.67,1.3,15.67.33,3.89-.94,7.25-3.06,11.15-5.5,1.2-.75,2.4-1.51,3.62-2.23,9.2-5.46,18.06-7.63,26.33-6.45,8.34,1.19,15.83,5.93,21.08,13.34,1.18,1.66,2.14,3.25,3.07,4.79,1.54,2.54,2.75,4.55,4.43,6.08,3.21,2.92,10.7,5.03,16.32,3.39,2.79-.82,5.28-2.53,8.16-4.52,1.02-.7,2.03-1.4,3.07-2.07,15.75-10.23,37.84-15.15,59.11-13.16,5.5.51,9.54,5.39,9.03,10.89-.51,5.5-5.39,9.54-10.89,9.03-16.67-1.55-34.44,2.28-46.36,10.02-.88.57-1.75,1.17-2.61,1.77-3.76,2.59-8.02,5.53-13.9,7.25-3.14.92-6.51,1.36-9.92,1.36Zm-239.48-2.8H30.68V2.63H0v96.74h81.4v-23.49Zm8.56-8.15v.55c0,8.15,1.52,16.86,10.09,24.18,10.92,9.4,27.36,9.81,40.35,9.81,13.82,0,27.92-.83,37.59-8.02,5.39-4.01,11.47-11.47,11.47-23.91,0-6.63-1.66-14.93-9.67-21.01-4.84-3.73-12.3-6.5-25.43-8.43l-12.02-1.8c-8.98-1.38-12.3-2.07-14.79-2.76-2.49-.69-6.63-2.07-6.63-6.91,0-2.21.83-5.11,4.7-7.19,3.46-1.8,7.88-2.07,11.61-2.07,7.6,0,10.78,1.11,12.44,1.94,4.56,2.35,5.11,6.08,4.98,8.57h29.85c.28-7.32-1.38-17-13.41-24.05-5.11-3.04-14.65-6.63-33.31-6.63-19.9,0-29.44,4.42-33.44,6.77-8.02,4.7-13.96,12.58-13.96,25.57,0,5.67,1.38,11.19,6.08,16.03,6.5,6.5,16.03,8.02,27.78,9.95l14.1,2.35c5.11.83,8.71,1.24,12.44,2.76,3.32,1.24,6.36,3.32,6.36,7.88,0,1.66-.41,5.8-5.53,8.29-3.59,1.8-7.88,1.93-12.3,1.93-4.7,0-10.64-.41-14.51-3.46-3.59-2.9-4.15-6.91-4.15-9.81v-.55h-30.68Zm368.78-25.57v-16.86h57.77V2.63h-88.45v96.74h30.68v-36.21h46.3v-21.01h-46.3Z"/></g></svg>