<?xml version="1.0" encoding="UTF-8"?><svg id="Layer_2" xmlns="http://www.w3.org/2000/svg" viewBox="0 0 75.98 76.85"><defs><style>.cls-1{fill:#101753;stroke-width:0px;}</style></defs><g id="Layer_1-2"><path class="cls-1" d="m44.39,6.02c.63.13,1.5.12,1.9-.51.25-.4.15-.91-.27-1.3-.59-.52-1.67-.84-2.49-1.35-.58-.36-1.14-.85-.96-1.68.17-.76,1.09-1.1,1.76-1.17.43-.03.88,0,1.33.1.81.18,1.58.54,2.12,1l-.57.86c-.15-.5-.52-1.32-1.47-1.62-.43-.14-1.07-.22-1.52-.06-.69.23-1.14.9-.39,1.52.89.72,2.49.97,3.1,1.94.4.64.21,1.63-.37,2.12-.58.5-1.5.51-2.26.34-1.03-.23-1.91-.74-2.51-1.53l.34-1.53.1.02c.04,1.29.92,2.58,2.15,2.84Z"/><path class="cls-1" d="m53.51,4.3c-.39-1.28-1.05-1.98-2.08-2.05-1.04-.07-1.98.94-2.23,2.32-.23,1.33.25,2.87,1.67,3.31.89.27,1.95,0,2.76-.88l.09.04c-.85,1.11-2.37,1.56-3.72.97-.7-.3-1.23-.83-1.55-1.47-.4-.79-.46-1.75-.08-2.63.68-1.58,2.6-2.29,4.16-1.61.63.27,1.22.71,1.71,1.3l-.72.69Z"/><path class="cls-1" d="m54.62,10.35l-.06.09-2.1-1.38.06-.09c.4.29.78.15,1.45-.86l1.23-1.87c.67-1.02.65-1.43.22-1.68l.06-.09c.57.37,1.39.54,1.9.34l-.75,1.14c.78-.31,1.74-.49,2.47-.01.39.26.66.69.79,1.14l-.84.61c0-.85-.2-1.94-1.3-1.82-.47.05-.98.24-1.34.4l-1.58,2.4c-.67,1.02-.64,1.42-.22,1.67Z"/><path class="cls-1" d="m63.22,9.27c1.26,1.18,1.33,3.16.15,4.42-1.18,1.26-3.15,1.32-4.41.15-1.26-1.18-1.33-3.14-.15-4.4,1.18-1.26,3.15-1.34,4.41-.16Zm-.97-.38c-1.06-.47-2.44.35-3.08,1.83-.64,1.48-.31,3.04.75,3.51,1.06.45,2.44-.37,3.08-1.84.64-1.48.31-3.04-.76-3.5Z"/><path class="cls-1" d="m62.98,18.14l-.08.06-1.56-1.96.08-.06c.29.4.69.39,1.65-.37l3.61-2.88c.95-.76,1.05-1.15.73-1.52l.08-.06c.42.53,1.15.95,1.7.91l-5.47,4.37c-.95.76-1.05,1.15-.73,1.52Z"/><path class="cls-1" d="m64.47,20.33l-.09.06-1.39-2.08.09-.06c.26.42.66.45,1.67-.23l3.84-2.57c1.01-.68,1.15-1.06.85-1.46l.09-.06c.38.56,1.07,1.04,1.62,1.05l-5.82,3.89c-1.01.68-1.15,1.06-.85,1.46Z"/><path class="cls-1" d="m68.22,28.77l-.1.04-.88-2.42c-.74-2.02.29-3.69,2.24-4.4,1.2-.44,2.71-.24,3.21,1.11.31.85-.03,1.71-.57,2.37l1.26-.46c1.15-.42,1.37-.75,1.17-1.21l.1-.04c.23.64.79,1.27,1.32,1.4l-6.58,2.4c-1.15.42-1.37.75-1.17,1.21Zm3.47-3.15c1.27-1.28.78-2.54-.37-2.82-1.15-.28-2.61.58-3.33,1.43-.53.63-.77,1.47-.58,2.01.19.53.68.68,1.63.34l2.65-.96Z"/><path class="cls-1" d="m74.84,31.05c.26,1.71-.92,3.3-2.62,3.56s-3.29-.92-3.55-2.62c-.26-1.71.91-3.29,2.61-3.55,1.71-.26,3.3.91,3.56,2.61Zm-.52-.9c-.54-1.02-2.13-1.24-3.55-.47-1.42.76-2.13,2.2-1.59,3.22.55,1.01,2.14,1.22,3.56.47,1.42-.76,2.13-2.2,1.58-3.22Z"/><path class="cls-1" d="m69.72,38.27l2.61,1.17,2.29-.6c.35-.1.58-.28.59-.67h.1s-.18,2.25-.18,2.25h-.1c.04-.39-.1-.6-.5-.5l-5.04,1.33,4.12,1.83c.18.07.36.1.55.04.08-.02.18-.04.26-.06.34-.09.44-.29.46-.64h.1c-.04.56-.11,1.38-.15,1.92h-.1c.04-.37-.12-.61-.45-.75l-5.46-2.42.07-.84,3.13-.82-2.96-1.31.07-.84,5.74-1.51c.35-.1.57-.27.59-.67h.1s-.18,2.27-.18,2.27h-.1c.04-.4-.1-.62-.5-.51l-5.04,1.33Z"/><path class="cls-1" d="m66.55,49.45c.22-.65.72-.81,1.31-.84,1.37-.08,2.79.44,4.16.38.95-.04,1.1-.73.79-1.51-.13-.32-.34-.65-.53-.91l-2.72-.92c-1.16-.39-1.54-.27-1.67.21l-.1-.03.8-2.38.1.03c-.18.46.05.79,1.2,1.18l2.11.72c1.16.39,1.55.27,1.69-.21l.1.03c-.22.64-.17,1.48.15,1.92l-1.31-.44c.48.7.93,1.55.67,2.34-.17.51-.59.88-1.3.96-1.43.16-3.5-.59-4.71-.27-.25.07-.59.29-.47.63l-.09.05c-.26-.27-.28-.63-.18-.95Z"/><path class="cls-1" d="m61.1,58.08c-.42.48-.85,1.25-.5,1.91.22.42.71.58,1.26.41.75-.26,1.56-1.04,2.41-1.49.6-.32,1.31-.57,1.94,0,.58.53.41,1.5.13,2.11-.18.39-.44.76-.75,1.1-.56.61-1.25,1.1-1.92,1.35l-.47-.92c.51.12,1.4.2,2.14-.47.33-.3.73-.82.81-1.28.15-.71-.22-1.44-1.12-1.09-1.07.41-2.09,1.68-3.23,1.73-.76.03-1.52-.64-1.65-1.38-.14-.75.31-1.55.83-2.13.71-.78,1.59-1.29,2.58-1.42l1.16,1.05-.07.08c-1.14-.6-2.69-.49-3.54.46Z"/><path class="cls-1" d="m58.07,66.85c1.31.3,2.24.07,2.81-.8.58-.87.17-2.19-.92-3.08-1.04-.86-2.62-1.21-3.7-.19-.67.64-.97,1.7-.6,2.83l-.08.06c-.54-1.29-.18-2.83,1-3.72.61-.46,1.33-.66,2.04-.62.88.04,1.75.47,2.32,1.23,1.04,1.38.7,3.39-.66,4.42-.55.42-1.22.71-1.97.84l-.24-.97Z"/><path class="cls-1" d="m52.26,64.82l-.05-.09,2.24-1.14.05.09c-.45.2-.52.6.03,1.69l1.01,1.99c.55,1.09.92,1.28,1.35,1.03l.05.09c-.61.31-1.16.94-1.23,1.48l-.62-1.22c-.12.83-.44,1.76-1.21,2.15-.42.21-.93.23-1.38.12l-.11-1.03c.74.42,1.79.79,2.22-.23.19-.43.28-.97.31-1.36l-1.3-2.56c-.55-1.09-.91-1.26-1.34-1.02Z"/><path class="cls-1" d="m48.94,72.82c-1.65.51-3.4-.42-3.91-2.06-.51-1.65.42-3.39,2.07-3.9,1.65-.51,3.39.41,3.9,2.06.51,1.65-.4,3.4-2.05,3.91Zm.81-.65c.93-.69.9-2.29-.06-3.58-.97-1.29-2.49-1.78-3.42-1.1-.92.69-.89,2.3.07,3.59.96,1.29,2.49,1.78,3.42,1.08Z"/><path class="cls-1" d="m41.38,68.2l-.02-.1,2.48-.38.02.1c-.49.05-.68.41-.5,1.61l.7,4.57c.18,1.21.47,1.49.96,1.39l.02.1c-.67.1-1.4.53-1.64,1.02l-1.06-6.92c-.18-1.21-.47-1.49-.96-1.39Z"/><path class="cls-1" d="m38.72,68.4v-.1s2.49-.17,2.49-.17v.1c-.49.01-.71.35-.62,1.56l.31,4.61c.08,1.22.34,1.52.84,1.46v.1c-.67.05-1.43.41-1.71.88l-.47-6.99c-.08-1.22-.35-1.52-.84-1.46Z"/><path class="cls-1" d="m29.53,67.47l.02-.1,2.54.43c2.12.36,3.06,2.09,2.71,4.13-.21,1.26-1.14,2.48-2.55,2.24-.9-.15-1.47-.87-1.78-1.67l-.23,1.33c-.21,1.2-.02,1.56.47,1.62l-.02.1c-.67-.11-1.49.06-1.87.45l1.18-6.9c.21-1.2.02-1.56-.47-1.62Zm1.02,4.57c.48,1.74,1.82,1.93,2.63,1.08.81-.86.79-2.56.41-3.61-.29-.77-.89-1.4-1.46-1.5-.55-.09-.93.25-1.1,1.25l-.47,2.78Z"/><path class="cls-1" d="m24.27,72.09c-1.61-.62-2.41-2.43-1.79-4.04.62-1.61,2.43-2.4,4.04-1.78,1.61.62,2.41,2.42,1.79,4.03-.62,1.61-2.42,2.42-4.03,1.8Zm1.04,0c1.16.04,2.13-1.24,2.17-2.85.04-1.61-.85-2.94-2.01-2.98-1.15-.02-2.12,1.25-2.17,2.86-.04,1.61.85,2.94,2.01,2.97Z"/><path class="cls-1" d="m20.55,64.06l-2.31,1.68-.62,2.28c-.09.36-.05.64.28.85l-.06.09-1.86-1.27.06-.08c.31.22.57.21.68-.19l1.36-5.04-3.64,2.67c-.15.12-.27.26-.31.46-.03.08-.05.17-.08.25-.09.34.03.52.33.72l-.06.08c-.46-.31-1.14-.78-1.58-1.08l.06-.09c.3.22.58.19.87-.02l4.82-3.53.69.47-.85,3.13,2.61-1.92.69.47-1.54,5.73c-.09.36-.06.63.28.85l-.06.08-1.87-1.28.06-.08c.32.23.58.21.69-.19l1.36-5.04Z"/><path class="cls-1" d="m12.41,55.75c.46.52.34,1.03.08,1.55-.6,1.23-1.76,2.2-2.39,3.42-.43.84.09,1.32.91,1.43.35.04.73.03,1.05,0l2.15-1.9c.91-.81.99-1.2.65-1.56l.08-.07,1.66,1.88-.08.07c-.31-.38-.71-.35-1.62.45l-1.67,1.48c-.91.81-1,1.21-.66,1.56l-.08.07c-.45-.51-1.2-.89-1.74-.82l1.03-.91c-.84.07-1.81.04-2.36-.58-.36-.4-.47-.95-.19-1.6.57-1.32,2.25-2.74,2.57-3.95.06-.26.05-.66-.31-.72v-.11c.36-.09.69.07.91.32Z"/><path class="cls-1" d="m7.61,46.75c-.21-.61-.66-1.36-1.4-1.38-.48-.01-.86.33-.98.89-.15.77.12,1.87.1,2.83-.02.68-.16,1.42-.97,1.68-.74.24-1.5-.38-1.9-.93-.25-.36-.44-.76-.58-1.2-.26-.79-.34-1.63-.21-2.34l1.03.05c-.36.38-.87,1.12-.65,2.09.09.44.35,1.04.71,1.34.54.48,1.36.53,1.51-.43.18-1.13-.42-2.64.1-3.66.35-.67,1.31-1,2.02-.75.72.25,1.2,1.04,1.44,1.78.33,1.01.33,2.02-.05,2.94l-1.49.48-.03-.1c1.09-.69,1.76-2.1,1.36-3.3Z"/><path class="cls-1" d="m1.52,39.73c-.91.98-1.18,1.91-.71,2.83.46.94,1.81,1.24,3.13.75,1.26-.47,2.35-1.67,2.01-3.11-.22-.9-.99-1.69-2.15-1.93v-.1c1.38.17,2.53,1.26,2.71,2.72.09.75-.09,1.48-.48,2.08-.48.74-1.28,1.28-2.22,1.4-1.71.21-3.29-1.09-3.5-2.78-.08-.68,0-1.41.26-2.13l.96.28Z"/><path class="cls-1" d="m6.17,35.72h.1s-.12,2.51-.12,2.51h-.1c.05-.5-.26-.75-1.48-.82l-2.23-.11c-1.22-.06-1.56.17-1.56.66h-.1c.03-.68-.24-1.48-.67-1.81l1.37.07c-.67-.52-1.31-1.25-1.27-2.12.02-.47.26-.92.58-1.26l.95.42c-.74.44-1.58,1.16-.91,2.04.28.38.7.72,1.02.95l2.87.14c1.22.06,1.55-.17,1.55-.66Z"/><path class="cls-1" d="m.87,28.85c.38-1.68,2.05-2.75,3.74-2.37s2.74,2.05,2.36,3.73c-.38,1.69-2.04,2.74-3.72,2.37-1.68-.38-2.75-2.04-2.38-3.72Zm.16,1.03c.13,1.15,1.54,1.92,3.14,1.72,1.6-.2,2.78-1.28,2.65-2.43-.15-1.14-1.55-1.91-3.15-1.73-1.6.2-2.78,1.28-2.64,2.43Z"/><path class="cls-1" d="m8.63,24.58l.1.04-.9,2.34-.1-.04c.2-.45-.02-.79-1.15-1.23l-4.32-1.66c-1.14-.44-1.53-.33-1.68.14l-.1-.04c.24-.63.23-1.48-.07-1.93l6.54,2.51c1.14.44,1.53.33,1.68-.14Z"/><path class="cls-1" d="m9.78,22.18l.09.05-1.09,2.25-.09-.04c.24-.44.05-.79-1.04-1.33l-4.16-2.02c-1.1-.53-1.49-.46-1.69,0l-.09-.04c.3-.61.36-1.45.09-1.92l6.3,3.06c1.1.53,1.49.46,1.69,0Z"/><path class="cls-1" d="m15.15,14.68l.08.07-1.64,1.99c-1.37,1.66-3.33,1.62-4.93.3-.98-.81-1.58-2.22-.67-3.33.58-.7,1.49-.84,2.33-.71l-1.04-.86c-.94-.78-1.34-.79-1.64-.4l-.08-.07c.43-.52.69-1.32.54-1.85l5.4,4.46c.94.78,1.34.79,1.64.4Zm-4.47-1.4c-1.75-.45-2.58.61-2.24,1.74.34,1.14,1.83,1.96,2.92,2.15.81.13,1.66-.08,2.03-.52.36-.43.25-.93-.53-1.58l-2.17-1.79Z"/><path class="cls-1" d="m13.76,7.82c1.34-1.09,3.31-.89,4.4.45,1.09,1.34.88,3.3-.46,4.39-1.34,1.09-3.29.89-4.38-.45-1.09-1.34-.9-3.3.44-4.39Zm-.51.9c-.61.98.02,2.46,1.4,3.3s2.97.72,3.58-.26c.59-.99-.04-2.46-1.4-3.3-1.38-.83-2.97-.72-3.57.27Z"/><path class="cls-1" d="m22.56,8.57l-.32-2.84-1.68-1.66c-.26-.26-.53-.36-.88-.17l-.04-.09,2.03-.99.04.09c-.35.16-.46.39-.17.68l3.71,3.67-.52-4.48c-.03-.19-.1-.36-.24-.5-.06-.06-.13-.13-.18-.19-.25-.25-.47-.23-.79-.07l-.04-.09c.5-.24,1.24-.6,1.73-.84l.04.09c-.34.15-.45.41-.41.76l.69,5.94-.75.37-2.3-2.28.38,3.22-.76.37-4.22-4.18c-.27-.25-.52-.36-.88-.17l-.05-.09,2.04-.99.05.09c-.36.16-.47.4-.18.69l3.71,3.67Z"/><path class="cls-1" d="m33.82,5.63c-.68.14-1.07-.21-1.39-.7-.76-1.13-1.03-2.63-1.78-3.78-.52-.8-1.19-.58-1.7.08-.21.28-.39.62-.52.92l.58,2.81c.25,1.19.55,1.46,1.03,1.34l.02.1-2.46.51-.02-.1c.49-.08.66-.44.41-1.63l-.45-2.18c-.25-1.19-.55-1.47-1.03-1.35l-.02-.1c.66-.14,1.37-.6,1.58-1.1l.28,1.35c.36-.77.87-1.59,1.68-1.75.53-.11,1.06.06,1.48.63.86,1.15,1.26,3.32,2.14,4.2.19.18.54.37.78.09l.09.05c-.1.36-.4.56-.73.63Z"/><circle class="cls-1" cx="37.69" cy="2.27" r=".86"/><circle class="cls-1" cx="67.81" cy="53.97" r=".86"/><circle class="cls-1" cx="7.42" cy="54.11" r=".86"/></g></svg>