<?xml version="1.0" encoding="utf-8"?>
<!-- Generator: Adobe Illustrator 27.9.0, SVG Export Plug-In . SVG Version: 6.00 Build 0)  -->
<svg version="1.1" id="Layer_2_00000164509440828491507050000004300363080840510080_"
	 xmlns="http://www.w3.org/2000/svg" xmlns:xlink="http://www.w3.org/1999/xlink" x="0px" y="0px" viewBox="0 0 76 76.8"
	 style="enable-background:new 0 0 76 76.8;" xml:space="preserve">
<style type="text/css">
	.st0{fill:#F7B69F;}
</style>
<g id="Layer_1-2">
	<path class="st0" d="M44.4,6c0.6,0.1,1.5,0.1,1.9-0.5c0.2-0.4,0.2-0.9-0.3-1.3c-0.6-0.5-1.7-0.8-2.5-1.3c-0.6-0.4-1.1-0.8-1-1.7
		c0.2-0.8,1.1-1.1,1.8-1.2c0.4,0,0.9,0,1.3,0.1c0.8,0.2,1.6,0.5,2.1,1L47.2,2c-0.2-0.5-0.5-1.3-1.5-1.6c-0.4-0.1-1.1-0.2-1.5-0.1
		c-0.7,0.2-1.1,0.9-0.4,1.5c0.9,0.7,2.5,1,3.1,1.9c0.4,0.6,0.2,1.6-0.4,2.1c-0.6,0.5-1.5,0.5-2.3,0.3c-1-0.2-1.9-0.7-2.5-1.5
		l0.3-1.5l0.1,0C42.3,4.5,43.1,5.8,44.4,6L44.4,6z"/>
	<path class="st0" d="M53.5,4.3c-0.4-1.3-1-2-2.1-2c-1-0.1-2,0.9-2.2,2.3c-0.2,1.3,0.2,2.9,1.7,3.3c0.9,0.3,2,0,2.8-0.9l0.1,0
		c-0.8,1.1-2.4,1.6-3.7,1c-0.7-0.3-1.2-0.8-1.5-1.5C48,5.8,48,4.8,48.4,3.9C49,2.3,51,1.6,52.5,2.3c0.6,0.3,1.2,0.7,1.7,1.3
		L53.5,4.3L53.5,4.3z"/>
	<path class="st0" d="M54.6,10.4L54.6,10.4l-2.2-1.3L52.5,9c0.4,0.3,0.8,0.1,1.5-0.9l1.2-1.9c0.7-1,0.7-1.4,0.2-1.7l0.1-0.1
		c0.6,0.4,1.4,0.5,1.9,0.3L56.6,6c0.8-0.3,1.7-0.5,2.5,0c0.4,0.3,0.7,0.7,0.8,1.1l-0.8,0.6c0-0.8-0.2-1.9-1.3-1.8
		c-0.5,0.1-1,0.2-1.3,0.4l-1.6,2.4C54.2,9.7,54.2,10.1,54.6,10.4L54.6,10.4z"/>
	<path class="st0" d="M63.2,9.3c1.3,1.2,1.3,3.2,0.2,4.4S60.2,15,59,13.8c-1.3-1.2-1.3-3.1-0.2-4.4S62,8.1,63.2,9.3L63.2,9.3z
		 M62.2,8.9c-1.1-0.5-2.4,0.4-3.1,1.8c-0.6,1.5-0.3,3,0.8,3.5c1.1,0.4,2.4-0.4,3.1-1.8C63.6,10.9,63.3,9.4,62.2,8.9L62.2,8.9z"/>
	<path class="st0" d="M63,18.1L63,18.1l-1.6-1.9l0.1-0.1c0.3,0.4,0.7,0.4,1.7-0.4l3.6-2.9c0.9-0.8,1.1-1.1,0.7-1.5l0.1-0.1
		c0.4,0.5,1.2,0.9,1.7,0.9l-5.5,4.4C62.8,17.4,62.7,17.8,63,18.1L63,18.1z"/>
	<path class="st0" d="M64.5,20.3L64.5,20.3l-1.5-2l0.1-0.1c0.3,0.4,0.7,0.5,1.7-0.2l3.8-2.6c1-0.7,1.2-1.1,0.8-1.5l0.1-0.1
		c0.4,0.6,1.1,1,1.6,1.1l-5.8,3.9C64.3,19.6,64.2,19.9,64.5,20.3L64.5,20.3z"/>
	<path class="st0" d="M68.2,28.8L68.2,28.8l-1-2.4c-0.7-2,0.3-3.7,2.2-4.4c1.2-0.4,2.7-0.2,3.2,1.1c0.3,0.9,0,1.7-0.6,2.4l1.3-0.5
		c1.2-0.4,1.4-0.8,1.2-1.2l0.1,0c0.2,0.6,0.8,1.3,1.3,1.4l-6.6,2.4C68.2,28,68,28.3,68.2,28.8z M71.7,25.6c1.3-1.3,0.8-2.5-0.4-2.8
		s-2.6,0.6-3.3,1.4c-0.5,0.6-0.8,1.5-0.6,2c0.2,0.5,0.7,0.7,1.6,0.3C69,26.6,71.7,25.6,71.7,25.6z"/>
	<path class="st0" d="M74.8,31c0.3,1.7-0.9,3.3-2.6,3.6s-3.3-0.9-3.6-2.6c-0.3-1.7,0.9-3.3,2.6-3.5C73,28.2,74.6,29.4,74.8,31z
		 M74.3,30.1c-0.5-1-2.1-1.2-3.6-0.5c-1.4,0.8-2.1,2.2-1.6,3.2c0.6,1,2.1,1.2,3.6,0.5C74.2,32.6,74.9,31.2,74.3,30.1z"/>
	<path class="st0" d="M69.7,38.3l2.6,1.2l2.3-0.6c0.3-0.1,0.6-0.3,0.6-0.7h0.1l-0.2,2.2H75c0-0.4-0.1-0.6-0.5-0.5l-5,1.3l4.1,1.8
		c0.2,0.1,0.4,0.1,0.6,0c0.1,0,0.2,0,0.3-0.1c0.3-0.1,0.4-0.3,0.5-0.6H75c0,0.6-0.1,1.4-0.2,1.9h-0.1c0-0.4-0.1-0.6-0.4-0.8
		l-5.5-2.4l0.1-0.8l3.1-0.8l-3-1.3l0.1-0.8l5.7-1.5c0.3-0.1,0.6-0.3,0.6-0.7h0.1l-0.2,2.3h-0.1c0-0.4-0.1-0.6-0.5-0.5L69.7,38.3
		L69.7,38.3z"/>
	<path class="st0" d="M66.6,49.5c0.2-0.7,0.7-0.8,1.3-0.8c1.4-0.1,2.8,0.4,4.2,0.4c0.9,0,1.1-0.7,0.8-1.5c-0.1-0.3-0.3-0.7-0.5-0.9
		l-2.7-0.9c-1.2-0.4-1.5-0.3-1.7,0.2l-0.1,0l0.8-2.4l0.1,0c-0.2,0.5,0.1,0.8,1.2,1.2l2.1,0.7c1.2,0.4,1.6,0.3,1.7-0.2l0.1,0
		c-0.2,0.6-0.2,1.5,0.2,1.9l-1.3-0.4c0.5,0.7,0.9,1.5,0.7,2.3c-0.2,0.5-0.6,0.9-1.3,1c-1.4,0.2-3.5-0.6-4.7-0.3
		c-0.2,0.1-0.6,0.3-0.5,0.6l-0.1,0C66.5,50.1,66.5,49.8,66.6,49.5L66.6,49.5z"/>
	<path class="st0" d="M61.1,58.1c-0.4,0.5-0.8,1.2-0.5,1.9c0.2,0.4,0.7,0.6,1.3,0.4c0.8-0.3,1.6-1,2.4-1.5c0.6-0.3,1.3-0.6,1.9,0
		c0.6,0.5,0.4,1.5,0.1,2.1c-0.2,0.4-0.4,0.8-0.8,1.1c-0.6,0.6-1.2,1.1-1.9,1.3l-0.5-0.9c0.5,0.1,1.4,0.2,2.1-0.5
		c0.3-0.3,0.7-0.8,0.8-1.3c0.2-0.7-0.2-1.4-1.1-1.1c-1.1,0.4-2.1,1.7-3.2,1.7c-0.8,0-1.5-0.6-1.7-1.4c-0.1-0.8,0.3-1.5,0.8-2.1
		c0.7-0.8,1.6-1.3,2.6-1.4l1.2,1l-0.1,0.1C63.5,57,62,57.1,61.1,58.1L61.1,58.1z"/>
	<path class="st0" d="M58.1,66.8c1.3,0.3,2.2,0.1,2.8-0.8c0.6-0.9,0.2-2.2-0.9-3.1c-1-0.9-2.6-1.2-3.7-0.2c-0.7,0.6-1,1.7-0.6,2.8
		l-0.1,0.1c-0.5-1.3-0.2-2.8,1-3.7c0.6-0.5,1.3-0.7,2-0.6c0.9,0,1.8,0.5,2.3,1.2c1,1.4,0.7,3.4-0.7,4.4c-0.5,0.4-1.2,0.7-2,0.8
		L58.1,66.8L58.1,66.8z"/>
	<path class="st0" d="M52.3,64.8L52.3,64.8l2.2-1.2l0,0.1c-0.5,0.2-0.5,0.6,0,1.7l1,2c0.5,1.1,0.9,1.3,1.3,1l0,0.1
		c-0.6,0.3-1.2,0.9-1.2,1.5l-0.6-1.2c-0.1,0.8-0.4,1.8-1.2,2.2c-0.4,0.2-0.9,0.2-1.4,0.1l-0.1-1c0.7,0.4,1.8,0.8,2.2-0.2
		c0.2-0.4,0.3-1,0.3-1.4l-1.3-2.6C53.1,64.7,52.7,64.6,52.3,64.8L52.3,64.8z"/>
	<path class="st0" d="M48.9,72.8c-1.7,0.5-3.4-0.4-3.9-2.1c-0.5-1.7,0.4-3.4,2.1-3.9s3.4,0.4,3.9,2.1C51.5,70.6,50.6,72.3,48.9,72.8
		L48.9,72.8z M49.8,72.2c0.9-0.7,0.9-2.3-0.1-3.6c-1-1.3-2.5-1.8-3.4-1.1c-0.9,0.7-0.9,2.3,0.1,3.6C47.3,72.4,48.8,72.9,49.8,72.2
		L49.8,72.2z"/>
	<path class="st0" d="M41.4,68.2L41.4,68.2l2.5-0.5l0,0.1c-0.5,0.1-0.7,0.4-0.5,1.6l0.7,4.6c0.2,1.2,0.5,1.5,1,1.4l0,0.1
		c-0.7,0.1-1.4,0.5-1.6,1l-1.1-6.9C42.2,68.4,41.9,68.1,41.4,68.2z"/>
	<path class="st0" d="M38.7,68.4L38.7,68.4l2.5-0.3v0.1c-0.5,0-0.7,0.3-0.6,1.6l0.3,4.6c0.1,1.2,0.3,1.5,0.8,1.5V76
		c-0.7,0.1-1.4,0.4-1.7,0.9l-0.5-7C39.5,68.6,39.2,68.3,38.7,68.4L38.7,68.4z"/>
	<path class="st0" d="M29.5,67.5L29.5,67.5l2.6,0.3c2.1,0.4,3.1,2.1,2.7,4.1c-0.2,1.3-1.1,2.5-2.5,2.2c-0.9-0.2-1.5-0.9-1.8-1.7
		l-0.2,1.3c-0.2,1.2,0,1.6,0.5,1.6l0,0.1c-0.7-0.1-1.5,0.1-1.9,0.4l1.2-6.9C30.2,67.9,30,67.5,29.5,67.5L29.5,67.5z M30.6,72
		c0.5,1.7,1.8,1.9,2.6,1.1c0.8-0.9,0.8-2.6,0.4-3.6c-0.3-0.8-0.9-1.4-1.5-1.5c-0.5-0.1-0.9,0.2-1.1,1.2L30.6,72L30.6,72z"/>
	<path class="st0" d="M24.3,72.1c-1.6-0.6-2.4-2.4-1.8-4c0.6-1.6,2.4-2.4,4-1.8s2.4,2.4,1.8,4C27.7,71.9,25.9,72.7,24.3,72.1
		L24.3,72.1z M25.3,72.1c1.2,0,2.1-1.2,2.2-2.8c0-1.6-0.9-2.9-2-3c-1.1,0-2.1,1.2-2.2,2.9C23.3,70.7,24.2,72.1,25.3,72.1z"/>
	<path class="st0" d="M20.5,64.1l-2.3,1.7L17.6,68c-0.1,0.4,0,0.6,0.3,0.8L17.8,69L16,67.7l0.1-0.1c0.3,0.2,0.6,0.2,0.7-0.2l1.4-5
		L14.4,65c-0.1,0.1-0.3,0.3-0.3,0.5c0,0.1-0.1,0.2-0.1,0.2c-0.1,0.3,0,0.5,0.3,0.7l-0.1,0.1c-0.5-0.3-1.1-0.8-1.6-1.1l0.1-0.1
		c0.3,0.2,0.6,0.2,0.9,0l4.8-3.5l0.7,0.5l-0.9,3.1l2.6-1.9l0.7,0.5l-1.5,5.7c-0.1,0.4-0.1,0.6,0.3,0.8l-0.1,0.1l-1.9-1.3l0.1-0.1
		c0.3,0.2,0.6,0.2,0.7-0.2C19.2,69.1,20.6,64.1,20.5,64.1z"/>
	<path class="st0" d="M12.4,55.8c0.5,0.5,0.3,1,0.1,1.5c-0.6,1.2-1.8,2.2-2.4,3.4c-0.4,0.8,0.1,1.3,0.9,1.4c0.4,0,0.7,0,1.1,0
		l2.1-1.9c0.9-0.8,1-1.2,0.6-1.6l0.1-0.1l1.7,1.9l-0.1,0.1c-0.3-0.4-0.7-0.3-1.6,0.5l-1.7,1.5c-0.9,0.8-1,1.2-0.7,1.6l-0.1,0.1
		c-0.4-0.5-1.2-0.9-1.7-0.8l1-0.9c-0.8,0.1-1.8,0-2.4-0.6c-0.4-0.4-0.5-1-0.2-1.6c0.6-1.3,2.2-2.7,2.6-4c0.1-0.3,0.1-0.7-0.3-0.7
		v-0.1C11.8,55.3,12.2,55.5,12.4,55.8L12.4,55.8z"/>
	<path class="st0" d="M7.6,46.8c-0.2-0.6-0.7-1.4-1.4-1.4c-0.5,0-0.9,0.3-1,0.9c-0.2,0.8,0.1,1.9,0.1,2.8c0,0.7-0.2,1.4-1,1.7
		c-0.7,0.2-1.5-0.4-1.9-0.9c-0.2-0.4-0.4-0.8-0.6-1.2c-0.3-0.8-0.3-1.6-0.2-2.3l1,0c-0.4,0.4-0.9,1.1-0.6,2.1c0.1,0.4,0.3,1,0.7,1.3
		c0.5,0.5,1.4,0.5,1.5-0.4c0.2-1.1-0.4-2.6,0.1-3.7c0.3-0.7,1.3-1,2-0.8c0.7,0.2,1.2,1,1.4,1.8c0.3,1,0.3,2-0.1,2.9l-1.5,0.5l0-0.1
		C7.3,49.3,8,47.9,7.6,46.8L7.6,46.8z"/>
	<path class="st0" d="M1.5,39.7c-0.9,1-1.2,1.9-0.7,2.8c0.5,0.9,1.8,1.2,3.1,0.8c1.3-0.5,2.3-1.7,2-3.1c-0.2-0.9-1-1.7-2.2-1.9v-0.1
		c1.4,0.2,2.5,1.3,2.7,2.7C6.6,41.6,6.4,42.4,6,43c-0.5,0.7-1.3,1.3-2.2,1.4c-1.7,0.2-3.3-1.1-3.5-2.8c-0.1-0.7,0-1.4,0.3-2.1
		L1.5,39.7L1.5,39.7z"/>
	<path class="st0" d="M6.2,35.7L6.2,35.7l0,2.5H6.1c0.1-0.5-0.3-0.8-1.5-0.8l-2.2-0.1c-1.2-0.1-1.6,0.2-1.6,0.7H0.7
		c0-0.7-0.2-1.5-0.7-1.8l1.4,0.1c-0.7-0.5-1.3-1.2-1.3-2.1c0-0.5,0.3-0.9,0.6-1.3l0.9,0.4c-0.7,0.4-1.6,1.2-0.9,2
		c0.3,0.4,0.7,0.7,1,1l2.9,0.1C5.8,36.5,6.2,36.2,6.2,35.7L6.2,35.7z"/>
	<path class="st0" d="M0.9,28.9c0.4-1.7,2.1-2.8,3.7-2.4s2.7,2,2.4,3.7c-0.4,1.7-2,2.7-3.7,2.4C1.6,32.2,0.5,30.5,0.9,28.9L0.9,28.9
		z M1,29.9c0.1,1.1,1.5,1.9,3.1,1.7s2.8-1.3,2.7-2.4c-0.2-1.1-1.5-1.9-3.2-1.7C2.1,27.6,0.9,28.7,1,29.9L1,29.9z"/>
	<path class="st0" d="M8.6,24.6l0.1,0L7.8,27l-0.1,0c0.2-0.5,0-0.8-1.2-1.2L2.3,24c-1.1-0.4-1.5-0.3-1.7,0.1l-0.1,0
		c0.2-0.6,0.2-1.5-0.1-1.9L7,24.7C8.1,25.1,8.5,25,8.6,24.6L8.6,24.6z"/>
	<path class="st0" d="M9.8,22.2L9.8,22.2l-1,2.3l-0.1,0c0.2-0.4,0.1-0.8-1-1.3l-4.2-2c-1.1-0.5-1.5-0.5-1.7,0l-0.1,0
		c0.3-0.6,0.4-1.5,0.1-1.9l6.3,3.1C9.2,22.7,9.6,22.6,9.8,22.2L9.8,22.2z"/>
	<path class="st0" d="M15.1,14.7L15.1,14.7l-1.6,2.1c-1.4,1.7-3.3,1.6-4.9,0.3c-1-0.8-1.6-2.2-0.7-3.3c0.6-0.7,1.5-0.8,2.3-0.7
		l-1-0.9c-0.9-0.8-1.3-0.8-1.6-0.4l-0.1-0.1c0.4-0.5,0.7-1.3,0.5-1.9l5.4,4.5C14.4,15.1,14.8,15.1,15.1,14.7L15.1,14.7z M10.7,13.3
		c-1.8-0.4-2.6,0.6-2.2,1.7c0.3,1.1,1.8,2,2.9,2.1c0.8,0.1,1.7-0.1,2-0.5c0.4-0.4,0.2-0.9-0.5-1.6L10.7,13.3L10.7,13.3z"/>
	<path class="st0" d="M13.8,7.8c1.3-1.1,3.3-0.9,4.4,0.5s0.9,3.3-0.5,4.4c-1.3,1.1-3.3,0.9-4.4-0.4S12.4,8.9,13.8,7.8z M13.2,8.7
		c-0.6,1,0,2.5,1.4,3.3s3,0.7,3.6-0.3c0.6-1,0-2.5-1.4-3.3C15.4,7.6,13.9,7.7,13.2,8.7L13.2,8.7z"/>
	<path class="st0" d="M22.6,8.6l-0.3-2.8l-1.7-1.7c-0.3-0.3-0.5-0.4-0.9-0.2l0-0.1l2-1l0,0.1c-0.4,0.2-0.5,0.4-0.2,0.7l3.7,3.7
		l-0.5-4.5c0-0.2-0.1-0.4-0.2-0.5c-0.1-0.1-0.1-0.1-0.2-0.2c-0.2-0.2-0.5-0.2-0.8-0.1l0-0.1c0.5-0.2,1.2-0.6,1.7-0.8l0,0.1
		c-0.3,0.1-0.5,0.4-0.4,0.8l0.7,5.9l-0.8,0.4L22.5,6l0.4,3.2l-0.8,0.4l-4.2-4.2C17.6,5.1,17.4,5,17,5.2l0-0.1l2-1l0,0.1
		c-0.4,0.2-0.5,0.4-0.2,0.7L22.6,8.6L22.6,8.6z"/>
	<path class="st0" d="M33.8,5.6c-0.7,0.1-1.1-0.2-1.4-0.7c-0.8-1.1-1-2.6-1.8-3.8c-0.5-0.8-1.2-0.6-1.7,0.1
		c-0.2,0.3-0.4,0.6-0.5,0.9L29,5c0.2,1.2,0.5,1.5,1,1.3l0,0.1l-2.5,0.5l0-0.1c0.5-0.1,0.7-0.4,0.4-1.6L27.5,3
		c-0.2-1.2-0.5-1.5-1-1.4l0-0.1c0.7-0.1,1.4-0.6,1.6-1.1l0.3,1.4C28.7,1,29.2,0.2,30,0c0.5-0.1,1.1,0.1,1.5,0.6
		c0.9,1.1,1.3,3.3,2.1,4.2c0.2,0.2,0.5,0.4,0.8,0.1L34.5,5C34.4,5.4,34.1,5.6,33.8,5.6L33.8,5.6z"/>
	<circle class="st0" cx="37.7" cy="2.3" r="0.9"/>
	<circle class="st0" cx="67.8" cy="54" r="0.9"/>
	<circle class="st0" cx="7.4" cy="54.1" r="0.9"/>
</g>
</svg>
